<?xml version="1.0" encoding="UTF-8"?>
<svg version="1.1" xmlns="http://www.w3.org/2000/svg" width="500" height="500">
<path d="M0 0 C165 0 330 0 500 0 C500 165 500 330 500 500 C335 500 170 500 0 500 C0 335 0 170 0 0 Z " fill="#7F7F7F" transform="translate(0,0)"/>
<path d="M0 0 C0.99 0.495 0.99 0.495 2 1 C2.6328125 3.28515625 2.6328125 3.28515625 3.125 6.0625 C3.29257812 6.98160156 3.46015625 7.90070313 3.6328125 8.84765625 C3.75398437 9.55792969 3.87515625 10.26820312 4 11 C4.66 10.67 5.32 10.34 6 10 C13.10855901 9.28089204 18.32865346 9.48607112 24 14 C26.85444462 18.0116519 27.90655218 20.01879785 28.375 24.9375 C29.07013376 28.48963352 30.18039363 29.12745202 33.234375 31.28515625 C36.74259263 33.3540244 40.34481565 35.20581029 44 37 C42.80174365 41.34444739 41.636047 43.89145541 38.1875 46.8125 C37.18783203 47.68841797 37.18783203 47.68841797 36.16796875 48.58203125 C33.75723768 50.15877968 31.83437331 50.61911563 29 51 C29 51.66 29 52.32 29 53 C30.98 53.66 32.96 54.32 35 55 C33.60678155 59.87626457 31.06141704 62.07577973 27 65 C23.95881572 66.02426581 21.13313966 66.13463994 17.9375 66.125 C16.65166016 66.12886719 16.65166016 66.12886719 15.33984375 66.1328125 C13 66 13 66 10 65 C10.9687146 68.99594772 12.8203963 70.88253408 15.875 73.4375 C23.64834101 80.02363984 23.64834101 80.02363984 24.26953125 85.28125 C24.34168398 89.53170198 23.91489869 93.50852324 23.1875 97.6875 C22.69242235 101.34846892 23.29180876 103.06094316 25.4375 106.0625 C26.283125 107.031875 27.12875 108.00125 28 109 C30.17863343 106.82136657 31.06800313 104.96382775 32.375 102.1875 C36.24233866 94.36288456 40.8692124 89.44878499 48.75 85.6875 C53.49993718 84.6827056 58.16414103 84.84511484 63 85 C63 85.66 63 86.32 63 87 C61.7829298 88.03982697 60.52501918 89.03210223 59.25 90 C53.48274242 94.99010939 51.42812085 99.98190743 50.625 107.51953125 C50.09558837 123.58386528 55.93453618 136.52375642 65.5625 149.0625 C74.50581129 160.71590562 78.55792004 172.22385115 77 187 C74.94588375 196.95935152 70.88843048 206.13027046 66 215 C66.64066406 214.48050781 67.28132813 213.96101562 67.94140625 213.42578125 C72.86300442 209.45769688 77.81011471 205.61035498 83 202 C78.63224653 216.48143503 68.15514151 227.93757354 55 235 C52.68398971 236.04986111 50.35113089 237.02932297 48 238 C48.99797607 238.02187378 48.99797607 238.02187378 50.01611328 238.04418945 C53.05297114 238.11901365 56.08877091 238.21556016 59.125 238.3125 C60.69507813 238.34633789 60.69507813 238.34633789 62.296875 238.38085938 C67.85679356 238.57440084 72.26188403 238.75813118 77 242 C78.875 244.6875 78.875 244.6875 80 247 C81.98 243.04 81.98 243.04 84 239 C88.23580253 238.92592094 92.47126341 238.87143304 96.70751953 238.83520508 C98.14899258 238.82010517 99.59041959 238.79962342 101.03173828 238.77368164 C103.10200343 238.7373487 105.17166207 238.72028671 107.2421875 238.70703125 C109.11173096 238.68346558 109.11173096 238.68346558 111.01904297 238.65942383 C112.00275879 238.77181396 112.98647461 238.8842041 114 239 C116.20703907 242.3105586 116.82318656 244.81653285 117.7265625 248.6796875 C117.95537613 249.65435471 117.95537613 249.65435471 118.18881226 250.64871216 C118.50941908 252.02145616 118.82694694 253.39492242 119.14160156 254.76904297 C119.62212881 256.86249146 120.11501001 258.95275023 120.609375 261.04296875 C120.92001827 262.3800349 121.2299379 263.71726942 121.5390625 265.0546875 C121.81959473 266.26624512 122.10012695 267.47780273 122.38916016 268.72607422 C122.92660762 271.60663794 123.04841319 274.08921037 123 277 C111.46494117 277.04631499 99.92990441 277.08186498 88.39477158 277.10362434 C83.03870106 277.11406707 77.68269409 277.12823528 72.32666016 277.15087891 C67.15900293 277.17258972 61.99140689 277.18456494 56.82370758 277.18975449 C54.85091437 277.1934534 52.87812456 277.20067633 50.90535736 277.21146011 C48.14483876 277.22595155 45.38457388 277.22797892 42.62402344 277.22705078 C41.80618881 277.23424133 40.98835419 277.24143188 40.14573669 277.24884033 C36.20984087 277.2344956 33.40558617 277.01224213 30 275 C28.64465072 275.62068555 27.3133833 276.29484291 26 277 C21.55271031 277.43049397 17.09093475 277.32422777 12.625 277.3125 C10.79582031 277.33666992 10.79582031 277.33666992 8.9296875 277.36132812 C7.15851563 277.36229492 7.15851563 277.36229492 5.3515625 277.36328125 C4.27729004 277.36626221 3.20301758 277.36924316 2.09619141 277.37231445 C-2.84432741 276.77822116 -6.0546725 275.04483566 -9.375 271.375 C-11.44402217 267.07780011 -11.3743038 263.67879749 -11 259 C-13.31 259 -15.62 259 -18 259 C-17.97679687 260.13179688 -17.95359375 261.26359375 -17.9296875 262.4296875 C-17.91093099 263.91145175 -17.89273066 265.39322312 -17.875 266.875 C-17.84986328 267.99455078 -17.84986328 267.99455078 -17.82421875 269.13671875 C-17.8066041 271.09194461 -17.89679811 273.04742021 -18 275 C-20.87595556 277.87595556 -23.20548555 277.29066223 -27.13867188 277.32226562 C-28.06228516 277.31904297 -28.98589844 277.31582031 -29.9375 277.3125 C-31.31711914 277.33666992 -31.31711914 277.33666992 -32.72460938 277.36132812 C-33.60826172 277.36197266 -34.49191406 277.36261719 -35.40234375 277.36328125 C-36.61651978 277.36775269 -36.61651978 277.36775269 -37.85522461 277.37231445 C-40.53517831 276.90709768 -41.4160962 276.18831295 -43 274 C-43.2172101 271.35003674 -43.28351554 268.94923442 -43.1875 266.3125 C-43.17396484 265.61060547 -43.16042969 264.90871094 -43.14648438 264.18554688 C-43.11120182 262.45670171 -43.05739583 260.72825235 -43 259 C-45.31 259 -47.62 259 -50 259 C-49.97679687 260.13179688 -49.95359375 261.26359375 -49.9296875 262.4296875 C-49.91093099 263.91145175 -49.89273066 265.39322312 -49.875 266.875 C-49.84986328 267.99455078 -49.84986328 267.99455078 -49.82421875 269.13671875 C-49.8066041 271.09194461 -49.89679811 273.04742021 -50 275 C-52.57681176 277.57681176 -54.28896366 277.2357752 -57.80010986 277.24884033 C-58.61107117 277.24164978 -59.42203247 277.23445923 -60.25756836 277.22705078 C-61.11135574 277.22734283 -61.96514313 277.22763489 -62.84480286 277.22793579 C-65.67658536 277.22653878 -68.508107 277.21095681 -71.33984375 277.1953125 C-73.30277869 277.19158272 -75.26571549 277.18873558 -77.22865295 277.18673706 C-82.40446076 277.17908986 -87.58015685 277.15943711 -92.75592041 277.1373291 C-98.02150976 277.11692415 -103.28711693 277.10773883 -108.55273438 277.09765625 C-117.80582191 277.07848658 -127.05883827 277.04951728 -136.31187439 277.01345825 C-138.54123926 277.00532313 -140.77062028 277 -143 277 C-155.33333333 277 -167.66666667 277 -180 277 C-181.47990519 277.00968874 -182.95980387 277.02039084 -184.43969727 277.03173828 C-189.40728342 277.06759806 -194.37485232 277.09079643 -199.3425293 277.10986328 C-201.49098656 277.11996294 -203.63942995 277.13364087 -205.7878418 277.15087891 C-208.88073094 277.17504766 -211.97344017 277.18646128 -215.06640625 277.1953125 C-216.51328575 277.21079636 -216.51328575 277.21079636 -217.98939514 277.22659302 C-218.88049484 277.22674408 -219.77159454 277.22689514 -220.68969727 277.22705078 C-221.86859276 277.23371262 -221.86859276 277.23371262 -223.07130432 277.24050903 C-225 277 -225 277 -227 275 C-227.22406625 272.45449442 -227.32810413 270.02075208 -227.3359375 267.47265625 C-227.3459227 266.35557533 -227.3459227 266.35557533 -227.35610962 265.21592712 C-227.36624041 263.63982618 -227.37092651 262.0636823 -227.37060547 260.48754883 C-227.37497741 258.0749651 -227.41128472 255.66421276 -227.44921875 253.25195312 C-227.45508712 251.72136043 -227.45905638 250.19075904 -227.4609375 248.66015625 C-227.47530853 247.93820572 -227.48967957 247.21625519 -227.50448608 246.47242737 C-227.4588759 241.47632019 -227.4588759 241.47632019 -225.3679657 239.30592346 C-222.28514138 237.60575838 -220.14164145 237.64536858 -216.62670898 237.67529297 C-214.68966347 237.6804744 -214.68966347 237.6804744 -212.71348572 237.6857605 C-211.30768617 237.70440233 -209.90188888 237.72321544 -208.49609375 237.7421875 C-207.05168899 237.7503271 -205.60727521 237.75698912 -204.16285706 237.76223755 C-200.3646223 237.77933911 -196.56674558 237.81358188 -192.76867676 237.85229492 C-186.68614468 237.91153726 -180.60343042 237.94536376 -174.52070808 237.97806168 C-172.39624165 237.99202224 -170.27195633 238.01361381 -168.14756775 238.03634644 C-166.85935623 238.04610504 -165.57114471 238.05586365 -164.24389648 238.06591797 C-163.10790512 238.07718719 -161.97191376 238.08845642 -160.80149841 238.10006714 C-157.9165279 238.12893245 -157.9165279 238.12893245 -155 237 C-156.01707031 236.50693359 -156.01707031 236.50693359 -157.0546875 236.00390625 C-170.14856852 229.31188119 -182.57452095 218.07233629 -188 204 C-187.67 203.01 -187.34 202.02 -187 201 C-186.08476562 201.78246094 -185.16953125 202.56492187 -184.2265625 203.37109375 C-183.02613205 204.39333531 -181.82560626 205.41546493 -180.625 206.4375 C-179.72007812 207.2119043 -179.72007812 207.2119043 -178.796875 208.00195312 C-175.59551296 210.78632294 -175.59551296 210.78632294 -172 213 C-172.54269531 211.91203125 -173.08539063 210.8240625 -173.64453125 209.703125 C-180.92323878 194.86445634 -186.01664265 181.15424192 -180.96484375 164.671875 C-178.13961392 156.84816162 -173.83397497 150.10491331 -169.3137207 143.18359375 C-161.29081203 130.82457026 -157.59727782 119.93983622 -159 105 C-160.39350708 99.70055434 -162.12744343 95.85036426 -166 92 C-166 91.34 -166 90.68 -166 90 C-166.763125 89.71125 -167.52625 89.4225 -168.3125 89.125 C-171 88 -171 88 -174 86 C-169.0745219 83.61188941 -164.88461969 83.18245883 -159.57421875 84.6875 C-149.82116862 88.23944542 -144.05009539 94.00989211 -139 103 C-138.65582031 103.89589844 -138.31164062 104.79179687 -137.95703125 105.71484375 C-137.22535582 108.15908955 -137.22535582 108.15908955 -135 109 C-135.44380448 89.18412987 -137.97140013 68.60039748 -148.1875 51.171875 C-150 48 -150 48 -150 46 C-150.66 46 -151.32 46 -152 46 C-152.33 45.01 -152.66 44.02 -153 43 C-138.89266175 44.79140803 -125.85795543 52.05094319 -115 61 C-114.20078125 61.64839844 -113.4015625 62.29679687 -112.578125 62.96484375 C-107.28646447 67.4485494 -103.04720612 72.37815742 -99 78 C-98.34773437 77.86722656 -97.69546875 77.73445313 -97.0234375 77.59765625 C-95.20925735 77.23107413 -93.39409423 76.8693328 -91.578125 76.51171875 C-89.75687327 76.15022788 -87.93940194 75.7694352 -86.125 75.375 C-81.09589477 74.77150737 -76.0587294 74.92632918 -71 75 C-70.97421875 74.443125 -70.9484375 73.88625 -70.921875 73.3125 C-70.43440172 66.75376857 -69.15380612 61.35837732 -64.5546875 56.4609375 C-59.35416602 52.47309368 -53.4211214 52.19314608 -47.0793457 51.89501953 C-42.98865358 51.61955517 -41.2229166 51.19734587 -38.10546875 48.4375 C-37.41066406 47.633125 -36.71585938 46.82875 -36 46 C-35.34 46 -34.68 46 -34 46 C-34.00902344 45.443125 -34.01804687 44.88625 -34.02734375 44.3125 C-33.78998791 38.20316706 -32.08372241 35.03060297 -27.84765625 30.6640625 C-22.66901408 26 -22.66901408 26 -19 26 C-18.9175 25.34 -18.835 24.68 -18.75 24 C-16.4160259 14.66410361 -10.19646401 6.62455272 -2.33984375 1.14453125 C-1.56769531 0.76683594 -0.79554688 0.38914062 0 0 Z " fill="#0A090A" transform="translate(302,73)"/>
<path d="M0 0 C0.75748535 0.23106445 1.5149707 0.46212891 2.29541016 0.70019531 C12.79535024 3.91384396 22.18589513 6.9184923 30 15 C31.17175781 16.2065625 31.17175781 16.2065625 32.3671875 17.4375 C38 23.51859862 38 23.51859862 38 26 C34.2089881 24.55049545 30.6125362 22.84827434 27 21 C27.495 21.845625 27.99 22.69125 28.5 23.5625 C30.14747708 27.33796832 30.24430947 29.92817548 30 34 C25.71 33.67 21.42 33.34 17 33 C18.381875 33.99 19.76375 34.98 21.1875 36 C25.4563205 39.31794579 29.05373171 42.85469302 31 48 C30.67 48.99 30.34 49.98 30 51 C29.46375 50.113125 28.9275 49.22625 28.375 48.3125 C24.31685129 42.29622359 18.9956666 38.67792741 12 37 C2.42798155 35.5077842 -7.54968148 39.03811533 -15.4375 44.3125 C-20.05224423 47.79986372 -24.38360171 51.76720341 -27 57 C-27.6895554 64.44945919 -27.65390266 69.998915 -23 76 C-18.73056614 80.47769893 -14.42899572 82.18233334 -8.5859375 84.10546875 C-6.26243279 84.90921887 -4.16616673 85.84572806 -2 87 C-5.69512628 88.97646289 -8.88295306 90.27758802 -13 91 C-8.11429181 93.84456788 -3.47932789 96.45454854 2 98 C-2.90268569 101.26845713 -7.13173703 102.27944109 -13 102 C-12.51402344 102.85207031 -12.02804688 103.70414062 -11.52734375 104.58203125 C-7.60190958 113.36657063 -9.92152541 123.93503021 -11.8125 133.0625 C-11.97758057 133.85938232 -12.14266113 134.65626465 -12.31274414 135.47729492 C-13.32961627 139.99656725 -14.54612231 144.01167222 -17 148 C-20.42469906 149.26564965 -22.1931401 149.28816425 -25.625 148.0625 C-30.28555574 144.01517528 -31.76447249 140.27200776 -32.38671875 134.26953125 C-32.78434576 125.00005931 -31.81517302 116.85567475 -25.9375 109.375 C-24 108 -24 108 -21 108 C-21 101.73 -21 95.46 -21 89 C-34.54313608 83.88677515 -47.44953657 80.70093595 -62 80 C-62.12246094 80.70511719 -62.24492187 81.41023438 -62.37109375 82.13671875 C-63.03405201 85.15503183 -63.98175575 87.91889442 -65.0625 90.8125 C-65.42472656 91.78832031 -65.78695312 92.76414062 -66.16015625 93.76953125 C-66.43730469 94.50558594 -66.71445313 95.24164063 -67 96 C-66.39414063 96.09796875 -65.78828125 96.1959375 -65.1640625 96.296875 C-55.48960499 98.02339357 -46.87189736 100.64475817 -40 108 C-36.65456652 114.69086697 -39.68006247 123.76142364 -41.2734375 130.57421875 C-42.09705621 134.45762524 -42.47832633 138.2489103 -42.69140625 142.20703125 C-42.79324219 142.79871094 -42.89507812 143.39039063 -43 144 C-47.67986457 146.33993229 -53.93350744 145.64004097 -59 145 C-62.65512175 141.42610318 -63.87359943 137.65196541 -64.11352539 132.61816406 C-64.10828857 131.75932617 -64.10305176 130.90048828 -64.09765625 130.015625 C-64.09443359 129.08105469 -64.09121094 128.14648438 -64.08789062 127.18359375 C-64.07951172 126.21550781 -64.07113281 125.24742187 -64.0625 124.25 C-64.05798828 123.26644531 -64.05347656 122.28289062 -64.04882812 121.26953125 C-64.03706483 118.84629209 -64.02062684 116.42317727 -64 114 C-65.918716 120.91461804 -67.34673937 127.55070271 -67.7890625 134.72265625 C-68 137 -68 137 -69 140 C-75.33546331 139.6344925 -75.33546331 139.6344925 -78.23022461 136.87060547 C-80.43073291 133.30134397 -80.35553975 131.41144123 -80.06640625 127.2578125 C-79.9590918 125.28554688 -79.9590918 125.28554688 -79.84960938 123.2734375 C-79.75620513 121.89046782 -79.66049473 120.50765199 -79.5625 119.125 C-78.7887549 108.08747958 -79.49427753 98.80597883 -82 88 C-82.61317648 84.3564233 -83.02387378 80.69063139 -83.47265625 77.0234375 C-83.8787198 74.03366824 -83.8787198 74.03366824 -85.03125 71.5390625 C-88.33760174 62.87322126 -86.25635148 52.52422888 -82.67578125 44.32421875 C-72.36022174 23.86141887 -58.09972744 7.29195934 -36.32421875 -1.23828125 C-24.75659426 -5.02935146 -11.37727518 -3.72635494 0 0 Z " fill="#F8F8F8" transform="translate(248,157)"/>
<path d="M0 0 C2.03864384 0.6678316 4.07548527 1.34144536 6.10546875 2.03515625 C8.17924533 2.72641511 10.2673205 3.37533882 12.36328125 3.99609375 C27.23490316 8.69325083 34.60843252 17.6873556 41.65625 31.16796875 C47.38509941 42.92053482 51.28546952 55.41552059 48.44921875 68.55078125 C44.88487759 78.87216728 36.75850213 90.7820392 27 96 C21.49134851 98.64746204 16.07392419 99.99677072 10.125 101.3125 C3.67900895 102.82555359 -1.45269035 104.27592239 -6.7109375 108.44140625 C-9.91479136 110.62286989 -13.34114664 111.96134838 -16.9375 113.375 C-17.60177002 113.63788818 -18.26604004 113.90077637 -18.95043945 114.17163086 C-23.70346222 116 -23.70346222 116 -26 116 C-26.02578125 116.57105469 -26.0515625 117.14210938 -26.078125 117.73046875 C-26.58659028 124.99921098 -27.84605882 132.38599982 -31 139 C-35.10369741 142.12112197 -35.10369741 142.12112197 -38.3125 141.6875 C-39.1478125 141.3471875 -39.1478125 141.3471875 -40 141 C-39.01 141 -38.02 141 -37 141 C-31.81994902 127.18653073 -27.57104762 109.23207437 -33 95 C-32.15695313 94.79503906 -31.31390625 94.59007812 -30.4453125 94.37890625 C-29.34960938 94.10949219 -28.25390625 93.84007812 -27.125 93.5625 C-26.03445312 93.29566406 -24.94390625 93.02882813 -23.8203125 92.75390625 C-21.07515279 92.1213522 -21.07515279 92.1213522 -19 91 C-19.58007812 90.82984375 -20.16015625 90.6596875 -20.7578125 90.484375 C-25.79164211 88.92272489 -29.81315483 87.22065013 -34 84 C-34 83.67 -34 83.34 -34 83 C-33.37351563 82.86722656 -32.74703125 82.73445313 -32.1015625 82.59765625 C-31.28429687 82.42105469 -30.46703125 82.24445313 -29.625 82.0625 C-28.40683594 81.80146484 -28.40683594 81.80146484 -27.1640625 81.53515625 C-24.970537 81.07669307 -24.970537 81.07669307 -23 80 C-23.79664063 79.75765625 -24.59328125 79.5153125 -25.4140625 79.265625 C-34.65845065 76.34160928 -41.29026486 73.01594738 -47 65 C-48.82819172 59.51542484 -49.38776649 52.98865426 -46.90625 47.64453125 C-45.4001206 45.57360332 -43.82415079 43.79596303 -42 42 C-41.17048828 41.16855469 -41.17048828 41.16855469 -40.32421875 40.3203125 C-32.8639173 33.42596495 -22.67287643 29.08280585 -12.5 28.5625 C-5.17524116 28.87309048 0.94838664 31.6046968 6.125 36.75 C7.09950382 37.81881064 8.06433421 38.89702973 9 40 C5.61584792 34.11619014 2.56921642 30.12721784 -3.4609375 26.875 C-3.96882813 26.58625 -4.47671875 26.2975 -5 26 C-5 25.67 -5 25.34 -5 25 C0.4389165 24.78244334 4.87080814 24.89571616 10 27 C9.68991116 25.39536551 9.37683713 23.79130769 9.0625 22.1875 C8.88847656 21.29417969 8.71445312 20.40085938 8.53515625 19.48046875 C8.02258847 16.88602829 8.02258847 16.88602829 7 14 C11.51478398 14.53115106 14.34666857 16.36620292 18 19 C14.2583816 13.48294699 10.12529705 9.08250681 5.05078125 4.76171875 C3.2796232 3.24020964 1.62397407 1.6755288 0 0 Z " fill="#B0B0B0" transform="translate(268,164)"/>
<path d="M0 0 C14.10896853 1.79161505 27.13964951 9.05205371 38 18 C38.78761719 18.63679688 39.57523437 19.27359375 40.38671875 19.9296875 C46.03373879 24.70424774 50.56322275 30.10041608 55 36 C52.11486262 38.24399574 49.13861737 40.13177537 46 42 C27.67292559 53.65601932 13.84064826 72.34452302 7.625 93.18359375 C5.81705769 101.33063376 7.12210159 107.99028465 9.35644531 115.93383789 C13.82436516 131.97540373 14.29342167 147.43476407 13.88964844 163.99121094 C13.87681824 164.73729111 13.86398804 165.48337128 13.85076904 166.25205994 C13.81464215 168.30410488 13.76137608 170.3558274 13.70703125 172.4074707 C14.1307649 177.60350462 15.65355399 180.81775473 19.5625 184.25 C23.27480356 186.13989999 26.44271403 186.83475758 30.53515625 187.41015625 C33 188 33 188 35.12890625 189.5625 C40.29767485 192.15040047 46.14962074 191.06995851 51.80859375 190.79492188 C58.18114444 190.61718407 61.77091794 191.27846667 67 195 C67 195.33 67 195.66 67 196 C43.24 196 19.48 196 -5 196 C-3.515 195.01 -3.515 195.01 -2 194 C-3.01707031 193.50693359 -3.01707031 193.50693359 -4.0546875 193.00390625 C-17.14856852 186.31188119 -29.57452095 175.07233629 -35 161 C-34.67 160.01 -34.34 159.02 -34 158 C-33.08476563 158.78246094 -32.16953125 159.56492187 -31.2265625 160.37109375 C-30.02613205 161.39333531 -28.82560626 162.41546493 -27.625 163.4375 C-26.72007813 164.2119043 -26.72007813 164.2119043 -25.796875 165.00195312 C-22.59551296 167.78632294 -22.59551296 167.78632294 -19 170 C-19.54269531 168.91203125 -20.08539063 167.8240625 -20.64453125 166.703125 C-27.92323878 151.86445634 -33.01664265 138.15424192 -27.96484375 121.671875 C-25.13961392 113.84816162 -20.83397497 107.10491331 -16.3137207 100.18359375 C-8.29081203 87.82457026 -4.59727782 76.93983622 -6 62 C-7.39350708 56.70055434 -9.12744343 52.85036426 -13 49 C-13 48.34 -13 47.68 -13 47 C-13.763125 46.71125 -14.52625 46.4225 -15.3125 46.125 C-18 45 -18 45 -21 43 C-16.0745219 40.61188941 -11.88461969 40.18245883 -6.57421875 41.6875 C3.17883138 45.23944542 8.94990461 51.00989211 14 60 C14.34417969 60.89589844 14.68835938 61.79179687 15.04296875 62.71484375 C15.77464418 65.15908955 15.77464418 65.15908955 18 66 C17.55619552 46.18412987 15.02859987 25.60039748 4.8125 8.171875 C3 5 3 5 3 3 C2.34 3 1.68 3 1 3 C0.505 1.515 0.505 1.515 0 0 Z " fill="#EA463A" transform="translate(149,116)"/>
<path d="M0 0 C0 0.66 0 1.32 0 2 C-1.2170702 3.03982697 -2.47498082 4.03210223 -3.75 5 C-9.51725758 9.99010939 -11.57187915 14.98190743 -12.375 22.51953125 C-12.90441163 38.58386528 -7.06546382 51.52375642 2.5625 64.0625 C11.50581129 75.71590562 15.55792004 87.22385115 14 102 C11.94588375 111.95935152 7.88843048 121.13027046 3 130 C3.64066406 129.48050781 4.28132813 128.96101562 4.94140625 128.42578125 C9.86300442 124.45769688 14.81011471 120.61035498 20 117 C16.00157781 130.25690464 6.69555198 141.12585364 -4.8984375 148.39453125 C-13.35686349 152.77288526 -20.13842697 154.5840212 -29.6953125 154.390625 C-30.76876923 154.38496521 -31.84222595 154.37930542 -32.94821167 154.37347412 C-36.34094875 154.35127411 -39.7325879 154.30110797 -43.125 154.25 C-45.4400888 154.22991387 -47.75519433 154.21166682 -50.0703125 154.1953125 C-55.71390952 154.15146331 -61.35687629 154.08471745 -67 154 C-64.74155099 152.28662072 -62.48233087 150.65699159 -60.1171875 149.08984375 C-39.09907811 135.13685788 -26.24034339 115.73140478 -21 91 C-17.32933484 69.64810268 -20.72158281 46.63317758 -32.76953125 28.30859375 C-34 26 -34 26 -33.8828125 23.89453125 C-30.09484154 13.48737391 -24.35929329 5.51238998 -14.25 0.6875 C-9.50006282 -0.3172944 -4.83585897 -0.15488516 0 0 Z " fill="#EF473A" transform="translate(365,158)"/>
<path d="M0 0 C5.56941483 2.57049915 8.26784635 6.69896882 11 12 C12.40365551 16.21096652 12.26447125 20.21275873 12.3125 24.625 C12.34150391 25.48996094 12.37050781 26.35492188 12.40039062 27.24609375 C12.46679043 34.05973547 11.24658095 40.43816514 6.51660156 45.62744141 C2.67054511 48.97044223 -0.73258089 50.38187196 -5.83984375 50.2734375 C-12.15607528 49.47391452 -18.22824849 47.41604763 -22.5625 42.625 C-27.4274196 35.96552793 -27.82021745 29.04643703 -27 21 C-24.91457439 13.02043732 -19.4825527 6.03457661 -12.625 1.5 C-8.18332157 -0.3379359 -4.73389293 -0.83081119 0 0 Z " fill="#060606" transform="translate(196,182)"/>
<path d="M0 0 C14.10896853 1.79161505 27.13964951 9.05205371 38 18 C38.78761719 18.63679688 39.57523438 19.27359375 40.38671875 19.9296875 C46.03373879 24.70424774 50.56322275 30.10041608 55 36 C52.11486262 38.24399574 49.13861737 40.13177537 46 42 C36.06882519 48.29328457 27.75427261 56.36802673 21 66 C20.34 65.67 19.68 65.34 19 65 C18.61417187 62.36044566 18.34204582 59.77967969 18.125 57.125 C16.48037308 40.38672556 13.43265544 22.87773877 4.8125 8.171875 C3 5 3 5 3 3 C2.34 3 1.68 3 1 3 C0.67 2.01 0.34 1.02 0 0 Z " fill="#ED463A" transform="translate(149,116)"/>
<path d="M0 0 C4.30986094 2.54874733 6.31368455 5.6920605 7.5625 10.5 C8.38821908 16.89932285 8.34152346 23.05588225 5.0390625 28.74609375 C1.09233636 33.43413617 -4.72809996 37.08052019 -10.85546875 37.7734375 C-16.77221158 37.99041255 -20.90562405 37.56717537 -25.78125 34.0703125 C-28.47748288 31.5139785 -29.85484608 28.85522632 -31.4375 25.5 C-31.7675 24.84 -32.0975 24.18 -32.4375 23.5 C-33.2688334 17.93322317 -32.93306384 13.52586327 -29.9375 8.6875 C-22.95781735 -0.67953253 -11.04267896 -4.71181978 0 0 Z " fill="#8E788B" transform="translate(269.4375,201.5)"/>
<path d="M0 0 C8.33414734 -0.6958008 15.72249305 0.33680827 23.8125 2.25 C24.69510498 2.45455811 25.57770996 2.65911621 26.48706055 2.86987305 C32.1146861 4.27029356 36.90423453 6.23017626 42 9 C42.02705308 11.41674224 42.04686438 13.8331794 42.0625 16.25 C42.07087891 16.93191406 42.07925781 17.61382812 42.08789062 18.31640625 C42.12135606 25.21028494 42.12135606 25.21028494 41 28 C40.236875 28.4125 39.47375 28.825 38.6875 29.25 C34.16967047 32.19184249 32.66086833 37.01739501 31 42 C30.11425608 54.6431065 30.11425608 54.6431065 35 66 C37.06544894 67.97424869 37.06544894 67.97424869 39 69 C35.26319631 68.74521793 33.47879977 68.46549978 30.75 65.8125 C27.1020209 59.94967644 26.6323613 54.348564 26.375 47.625 C26.33632812 46.79355469 26.29765625 45.96210938 26.2578125 45.10546875 C26.16425754 43.07064844 26.08107287 41.03535584 26 39 C25.34807312 41.49854767 24.70336936 43.9986137 24.0625 46.5 C23.88009766 47.19609375 23.69769531 47.8921875 23.50976562 48.609375 C22.58631528 52.23601634 21.87456558 55.74225814 21.49609375 59.46875 C21.33238281 60.6340625 21.16867188 61.799375 21 63 C20.01 63.495 20.01 63.495 19 64 C18.63104516 58.06939255 19.14954621 52.79490498 20.5 47 C22.89918933 36.94992552 22.89918933 36.94992552 20.625 27.1875 C13.24355254 21.03629379 4.10572819 18.55474192 -5 16 C-4.54548816 14.26982492 -4.08621143 12.54090123 -3.625 10.8125 C-3.36976563 9.84957031 -3.11453125 8.88664063 -2.8515625 7.89453125 C-2.05233704 5.17789793 -1.0968638 2.60862825 0 0 Z " fill="#B3B3B3" transform="translate(186,237)"/>
<path d="M0 0 C6.27 0 12.54 0 19 0 C19.66 2.64 20.32 5.28 21 8 C21.66 8 22.32 8 23 8 C23 5.36 23 2.72 23 0 C28.61 0 34.22 0 40 0 C40 9.9 40 19.8 40 30 C33.73 30 27.46 30 21 30 C20.34 27.36 19.68 24.72 19 22 C18.34 22 17.68 22 17 22 C17 24.64 17 27.28 17 30 C11.39 30 5.78 30 0 30 C0 20.1 0 10.2 0 0 Z " fill="#FDFDFD" transform="translate(208,316)"/>
<path d="M0 0 C4.89393178 -0.09200081 9.78484642 -0.1715799 14.67895508 -0.21972656 C16.34247013 -0.23980207 18.00591496 -0.26706876 19.66918945 -0.30175781 C22.0647924 -0.35045766 24.45945992 -0.37300856 26.85546875 -0.390625 C27.96513252 -0.42159271 27.96513252 -0.42159271 29.09721375 -0.45318604 C32.75728477 -0.45476496 34.8336441 -0.1031371 37.97192383 1.8425293 C40.63053543 4.67076461 40.61391644 6.23205972 40.5 10.0625 C40.4896875 11.10535156 40.479375 12.14820313 40.46875 13.22265625 C39.95966016 16.23901356 39.38272582 17.16859637 37 19 C37.309375 19.886875 37.61875 20.77375 37.9375 21.6875 C38.83058657 24.47182872 39.4582708 27.1351798 40 30 C37.24763726 30.16225719 34.50482524 30.2809328 31.75 30.375 C30.97269531 30.42527344 30.19539063 30.47554688 29.39453125 30.52734375 C27.11711064 30.58573915 25.20930961 30.56640302 23 30 C20.578125 27.0390625 20.578125 27.0390625 19 24 C18.34 23.67 17.68 23.34 17 23 C17 25.31 17 27.62 17 30 C11.39 30 5.78 30 0 30 C0 20.1 0 10.2 0 0 Z " fill="#FDFDFD" transform="translate(338,316)"/>
<path d="M0 0 C-0.33 2.97 -0.66 5.94 -1 9 C-3.64 8.34 -6.28 7.68 -9 7 C9.84181451 16.6208204 29.19557352 22.36712292 50 26 C48.35 24.02 46.7 22.04 45 20 C44.505 21.485 44.505 21.485 44 23 C42.68 23 41.36 23 40 23 C39.63076923 17.46153846 39.63076923 17.46153846 41.5 15.125 C41.995 14.75375 42.49 14.3825 43 14 C48.67212414 15.83509899 52.68463608 19.02695413 56 24 C56.25 26.5625 56.25 26.5625 56 29 C53.49009555 31.50990445 52.6158228 31.35344336 49.125 31.4375 C39.87888119 31.32474245 28.35072368 29.17536184 20 25 C20.66 25.99 21.32 26.98 22 28 C22.07905064 30.33199388 22.08798769 32.66832622 22 35 C17.26023626 34.444355 13.11379777 33.4926886 8.6484375 31.8203125 C7.46636719 31.38589844 6.28429687 30.95148438 5.06640625 30.50390625 C2.62859717 29.59327492 0.19109096 28.68183232 -2.24609375 27.76953125 C-10.07561795 24.89389885 -17.82534782 22.66429022 -26 21 C-22.93614973 4.71458602 -22.93614973 4.71458602 -19 2 C-12.77221324 -0.51761593 -6.63906346 -0.19622848 0 0 Z " fill="#443D4D" transform="translate(262,131)"/>
<path d="M0 0 C4.74226371 3.59451133 8.83042477 8.01514658 10 14 C10.77219691 23.30986696 10.29248578 29.42710308 4.75 37.125 C-2.47783314 44.68137101 -10.78602473 46.04421393 -20.875 46.375 C-30.63056456 46.19628815 -38.35007891 43.63773057 -45.40625 36.76953125 C-50.05003324 31.61356603 -50.66080415 26.73544329 -50.4765625 19.96875 C-49.70202074 15.14373576 -47.41568859 12.36290753 -44 9 C-43.44699219 8.44570312 -42.89398438 7.89140625 -42.32421875 7.3203125 C-30.81302619 -3.31761718 -14.10892169 -7.92898078 0 0 Z M-24 7 C-24.9075 7.598125 -25.815 8.19625 -26.75 8.8125 C-31.23114095 13.16916482 -33.23269832 16.87190362 -33.4375 23.0625 C-33.17474651 28.84307683 -31.45920481 32.34879456 -27.625 36.6875 C-22.37899177 41.30898344 -18.92684696 42.62770578 -11.91796875 42.41015625 C-6.25235296 41.61378455 -1.27404861 39.38905796 2.69921875 35.21484375 C7.47297248 28.77232797 7.67783359 22.75087971 7 15 C5.99880929 11.03987624 4.50302651 8.2448596 1.33984375 5.625 C-6.91789807 0.74157157 -16.23349327 1.8755241 -24 7 Z " fill="#040405" transform="translate(270,197)"/>
<path d="M0 0 C0.66 0 1.32 0 2 0 C2.81604999 1.9151579 3.62770632 3.83218834 4.4375 5.75 C5.11619141 7.35101563 5.11619141 7.35101563 5.80859375 8.984375 C9.78622142 19.0523375 9.02291996 30.33696321 5.203125 40.34375 C1.0032463 49.61620946 -5.05441489 57.28132366 -14.81298828 61.10107422 C-18.06879974 62.0194056 -20.68257387 62.23007656 -24.0546875 62.1953125 C-25.16328125 62.18886719 -26.271875 62.18242187 -27.4140625 62.17578125 C-28.55617188 62.15902344 -29.69828125 62.14226562 -30.875 62.125 C-32.0403125 62.11597656 -33.205625 62.10695313 -34.40625 62.09765625 C-37.27104577 62.07417432 -40.13541535 62.04133141 -43 62 C-40.10802963 59.04373811 -37.221928 56.65924914 -33.8125 54.3125 C-15.15805278 40.80410719 -5.24248587 22.11961142 0 0 Z " fill="#F49026" transform="translate(344,249)"/>
<path d="M0 0 C13.2 0 26.4 0 40 0 C40 2.97 40 5.94 40 9 C30.1 9.495 30.1 9.495 20 10 C20 10.33 20 10.66 20 11 C26.6 11.33 33.2 11.66 40 12 C40 14.31 40 16.62 40 19 C33.4 19 26.8 19 20 19 C20.33 19.66 20.66 20.32 21 21 C27.27 21.33 33.54 21.66 40 22 C40 24.64 40 27.28 40 30 C26.8 30 13.6 30 0 30 C0 20.1 0 10.2 0 0 Z " fill="#FBFBFB" transform="translate(165,316)"/>
<path d="M0 0 C5.61 0 11.22 0 17 0 C17.495 8.415 17.495 8.415 18 17 C18.99 17 19.98 17 21 17 C21.33 11.39 21.66 5.78 22 0 C27.94 0 33.88 0 40 0 C40.13499972 3.89699187 40.2341331 7.78930653 40.3125 11.6875 C40.35439453 12.79029297 40.39628906 13.89308594 40.43945312 15.02929688 C40.5629458 23.20451204 40.5629458 23.20451204 37.73046875 27.20703125 C31.92109073 31.02177304 25.36800459 30.29052044 18.625 30.375 C17.5009375 30.41238281 16.376875 30.44976562 15.21875 30.48828125 C5.92847942 30.58711392 5.92847942 30.58711392 2.234375 28.27734375 C-1.2643628 23.14545387 -0.63932504 18.23647694 -0.375 12.1875 C-0.34792969 11.01767578 -0.32085937 9.84785156 -0.29296875 8.64257812 C-0.22239773 5.76092804 -0.11478399 2.88022779 0 0 Z " fill="#FDFDFD" transform="translate(295,316)"/>
<path d="M0 0 C12.87 0 25.74 0 39 0 C39 2.97 39 5.94 39 9 C32.4 9 25.8 9 19 9 C19 9.99 19 10.98 19 12 C25.93 12 32.86 12 40 12 C40 14.31 40 16.62 40 19 C33.07 19 26.14 19 19 19 C19.33 19.66 19.66 20.32 20 21 C26.6 21.33 33.2 21.66 40 22 C40 24.64 40 27.28 40 30 C26.8 30 13.6 30 0 30 C0 20.1 0 10.2 0 0 Z " fill="#FAFAFA" transform="translate(80,316)"/>
<path d="M0 0 C5.61 0 11.22 0 17 0 C17.33 3.63 17.66 7.26 18 11 C18.66 11 19.32 11 20 11 C20.33 7.37 20.66 3.74 21 0 C26.94 0 32.88 0 39 0 C38.54092975 6.33516952 37.61093255 12.00196118 35.71875 18.06640625 C34.76237662 21.96986499 34.4438144 26.0056704 34 30 C24.43 30 14.86 30 5 30 C3.5572227 25.6716681 2.59797729 22.16798257 1.9375 17.75 C1.39557581 13.73935242 1.39557581 13.73935242 0 10 C-0.13677734 6.66263287 -0.04283944 3.3414767 0 0 Z " fill="#FBFBFB" transform="translate(123,316)"/>
<path d="M0 0 C1.81624266 3.11755256 2.25623003 5.39995478 2.265625 8.9921875 C2.26949219 10.42111328 2.26949219 10.42111328 2.2734375 11.87890625 C2.26570313 12.86761719 2.25796875 13.85632813 2.25 14.875 C2.26160156 16.34646484 2.26160156 16.34646484 2.2734375 17.84765625 C2.24680655 27.71442455 2.24680655 27.71442455 0 32 C-2.03125 33.171875 -2.03125 33.171875 -4.5 33.75 C-5.84384766 34.08837891 -5.84384766 34.08837891 -7.21484375 34.43359375 C-8.99178266 34.79496281 -10.77581756 35.12398911 -12.56640625 35.41015625 C-18.23213039 36.32341069 -21.79299856 37.90099087 -26.42578125 41.26953125 C-29.63580999 43.42741097 -32.97854539 45.15389256 -36.4375 46.875 C-37.05334961 47.18526123 -37.66919922 47.49552246 -38.30371094 47.81518555 C-42.73874237 50 -42.73874237 50 -45 50 C-45.33 45.38 -45.66 40.76 -46 36 C-43.42838542 34.73046875 -40.85677083 33.4609375 -38.28515625 32.19140625 C-36.09471096 31.19474606 -36.09471096 31.19474606 -35 30 C-35.85464844 29.73445313 -36.70929688 29.46890625 -37.58984375 29.1953125 C-39.24693359 28.66550781 -39.24693359 28.66550781 -40.9375 28.125 C-42.03964844 27.77695313 -43.14179688 27.42890625 -44.27734375 27.0703125 C-47 26 -47 26 -48 24 C-47.36835938 23.96261719 -46.73671875 23.92523438 -46.0859375 23.88671875 C-33.67465771 22.97465064 -18.66708934 21.49532094 -9 13 C-8.34 13 -7.68 13 -7 13 C-6.72414063 12.43796875 -6.44828125 11.8759375 -6.1640625 11.296875 C-4.95631972 8.91381206 -3.67823191 6.5820992 -2.375 4.25 C-1.70597656 3.05117187 -1.70597656 3.05117187 -1.0234375 1.828125 C-0.68570313 1.22484375 -0.34796875 0.6215625 0 0 Z " fill="#040404" transform="translate(288,225)"/>
<path d="M0 0 C8.58 0 17.16 0 26 0 C26.99795803 4.11148526 27.99523225 8.22312347 28.99072266 12.33520508 C29.32983123 13.73504396 29.6693485 15.13478391 30.00927734 16.53442383 C30.49683511 18.54222367 30.9829386 20.55037073 31.46875 22.55859375 C31.76201172 23.76829834 32.05527344 24.97800293 32.35742188 26.22436523 C33 29 33 29 33 30 C25.41 30 17.82 30 10 30 C10.33 27.36 10.66 24.72 11 22 C12.65 22 14.3 22 16 22 C15.34 17.71 14.68 13.42 14 9 C13.01 9.495 13.01 9.495 12 10 C10.01480074 16.4227035 9.5711756 23.33628466 9 30 C3.72 30 -1.56 30 -7 30 C-6.27475463 24.92328238 -5.41223019 20.45718193 -4.0625 15.5625 C-2.64265431 10.38519193 -1.30280056 5.21120225 0 0 Z " fill="#FAFAFA" transform="translate(388,316)"/>
<path d="M0 0 C1.5625 2.8125 1.5625 2.8125 3 6 C1.68786941 9.93639176 0.17198478 10.28653597 -3.4375 12.1875 C-4.42621094 12.71730469 -5.41492188 13.24710937 -6.43359375 13.79296875 C-9 15 -9 15 -11 15 C-10.71125 15.495 -10.4225 15.99 -10.125 16.5 C-7.63105552 22.04209885 -6.7481849 28.01452077 -6 34 C-10.27751434 35.18773351 -14.3338537 35.25838056 -18.75 35.3125 C-19.5234375 35.34150391 -20.296875 35.37050781 -21.09375 35.40039062 C-28.10057938 35.47680739 -33.17112926 33.40454013 -38.5 28.875 C-40.70910018 24.64089132 -40.32730522 20.68228301 -40 16 C-38.65808594 15.45472656 -38.65808594 15.45472656 -37.2890625 14.8984375 C-31.58587193 12.5271749 -26.13761142 10.24432839 -20.9375 6.875 C-14.83959242 3.02582245 -7.28184391 0 0 0 Z " fill="#443D4C" transform="translate(288,269)"/>
<path d="M0 0 C7.1029021 13.44935795 5.24837007 31.24130808 4.88916016 45.98852539 C4.87640045 46.73499329 4.86364075 47.48146118 4.85049438 48.25054932 C4.81464284 50.30310043 4.76138936 52.35532631 4.70703125 54.4074707 C5.1307649 59.60350462 6.65355399 62.81775473 10.5625 66.25 C14.28086126 68.14298392 17.44470815 68.75157776 21.51953125 69.4296875 C25.19783286 70.27540724 27.85410873 71.94833178 31 74 C31 74.33 31 74.66 31 75 C11.322372 75.64477665 11.322372 75.64477665 2.875 68.9375 C-5.96312478 60.61926491 -10.9318292 48.48911358 -11.4375 36.375 C-10.66801013 23.57348677 -4.86985173 11.66825476 0 0 Z " fill="#F38F25" transform="translate(158,234)"/>
<path d="M0 0 C13.53 0 27.06 0 41 0 C41 3.96 41 7.92 41 12 C37.37 12.33 33.74 12.66 30 13 C29.67 18.61 29.34 24.22 29 30 C23.39 30 17.78 30 12 30 C12 24.06 12 18.12 12 12 C8.04 12 4.08 12 0 12 C0 8.04 0 4.08 0 0 Z " fill="#F9F9F9" transform="translate(251,316)"/>
<path d="M0 0 C7.04034033 6.43688258 10.87650758 14.06134196 14 23 C14.22816406 23.64582031 14.45632813 24.29164063 14.69140625 24.95703125 C17.306119 33.64226592 17.19667835 43.30296261 13.40625 51.57421875 C10.00011339 57.4498044 6.25539587 63.0873313 0 66 C0.00523682 65.3702124 0.01047363 64.7404248 0.01586914 64.09155273 C0.03680138 61.20687885 0.0497115 58.32222102 0.0625 55.4375 C0.07087891 54.44685547 0.07925781 53.45621094 0.08789062 52.43554688 C0.10117005 48.43843882 0.09193187 44.6147944 -0.5 40.65625 C-1.29964737 34.80882859 -1.10267589 28.95599404 -1.0625 23.0625 C-1.05798828 21.80630859 -1.05347656 20.55011719 -1.04882812 19.25585938 C-1.03709681 16.17052337 -1.020681 13.08528684 -1 10 C0.65 11.65 2.3 13.3 4 15 C2.9318153 9.88634986 1.76892524 4.92772031 0 0 Z " fill="#060606" transform="translate(295,186)"/>
<path d="M0 0 C8.1082289 4.22445539 11.44005446 12.54301273 14.3125 20.75 C14.98910983 23.94851919 15.05001287 26.74461689 15 30 C6.51927288 28.2226021 -1.41321249 25.49740076 -9.49926758 22.42553711 C-10.28325928 22.12784424 -11.06725098 21.83015137 -11.875 21.5234375 C-12.57367188 21.25450684 -13.27234375 20.98557617 -13.9921875 20.70849609 C-15.97672932 20.00821152 -17.95122964 19.47601755 -20 19 C-20.91116273 9.66901871 -20.91116273 9.66901871 -18.76953125 5.74609375 C-13.61446501 -0.35088582 -7.78246884 -1.2562672 0 0 Z " fill="#423C4B" transform="translate(284,123)"/>
<path d="M0 0 C4.55242264 1.7299206 6.04586773 4.92983472 8.125 9.1875 C10.28511197 15.66783591 10.01194849 22.95234655 7.375 29.25 C5.09104712 33.7129892 2.89035508 35.59904831 -1.875 37.1875 C-7.50747677 37.62076744 -10.92348224 36.61273319 -15.875 34.1875 C-15.59011719 23.18066421 -12.31255387 12.14238655 -5.875 3.1875 C-5.42125 2.548125 -4.9675 1.90875 -4.5 1.25 C-2.875 0.1875 -2.875 0.1875 0 0 Z " fill="#8F798C" transform="translate(195.875,191.8125)"/>
<path d="M0 0 C0.66 0 1.32 0 2 0 C2.556875 0.7425 3.11375 1.485 3.6875 2.25 C6.39172014 5.46582936 9.31527705 7.14196781 13 9 C13.65846924 9.34321289 14.31693848 9.68642578 14.99536133 10.04003906 C20.04033808 12.62733145 25.19356439 14.82555361 30.51171875 16.796875 C33.34596248 18.16727856 35.02933492 19.5492425 37 22 C37.25 25.75 37.25 25.75 37 29 C28.69479849 27.3389597 20.87680529 24.68671461 12.8828125 21.921875 C6.95641019 19.90116785 1.14150533 18.22830107 -5 17 C-2.26213592 2.26213592 -2.26213592 2.26213592 0 0 Z " fill="#8E778B" transform="translate(241,135)"/>
<path d="M0 0 C2.17933366 1.38531287 3.60888132 2.80654541 5.265625 4.78125 C6.04679687 5.69390625 6.04679687 5.69390625 6.84375 6.625 C8.015625 8.28125 8.015625 8.28125 8.015625 10.28125 C3.560625 10.77625 3.560625 10.77625 -0.984375 11.28125 C0.294375 11.714375 1.573125 12.1475 2.890625 12.59375 C6.33142604 13.75918261 6.88130358 14.07976787 9.015625 17.28125 C7.79488281 17.23484375 6.57414062 17.1884375 5.31640625 17.140625 C-9.46834352 16.74604372 -20.46123615 19.02563108 -32.984375 27.28125 C-33.644375 27.61125 -34.304375 27.94125 -34.984375 28.28125 C-34.54092113 21.18598808 -28.84301716 15.89609954 -23.984375 11.21875 C-19.07463395 6.97928077 -6.42765229 -2.32812603 0 0 Z " fill="#B7B7B7" transform="translate(257.984375,166.71875)"/>
<path d="M0 0 C4.94141689 4.78201635 4.94141689 4.78201635 5.16796875 9.4921875 C5.34677488 26.17499152 3.44661438 40.76477725 -7.25390625 54.2578125 C-9.06039185 56.06025675 -10.66404111 57.00836756 -13 58 C-13.8125 55.8125 -13.8125 55.8125 -14 53 C-11.60250746 50.17942055 -8.91601129 47.92696634 -6.125 45.5 C-3.7179731 43.22090617 -3.7179731 43.22090617 -4.0234375 40.43359375 C-5.28353661 37.29342677 -7.0311943 34.8613491 -9.0390625 32.16015625 C-10.43771143 29.01603894 -9.91631809 27.30272913 -9 24 C-7.48278001 20.59993781 -5.67871234 17.35664932 -3.8828125 14.09765625 C-1.35737248 9.3140673 -0.38692352 5.40483787 0 0 Z " fill="#8D788B" transform="translate(326,228)"/>
<path d="M0 0 C0.66 1.32 1.32 2.64 2 4 C0.75443908 4.81928886 -0.49666635 5.63015186 -1.75 6.4375 C-2.79414063 7.11619141 -2.79414063 7.11619141 -3.859375 7.80859375 C-5.92957014 8.9608009 -7.68696324 9.54676982 -10 10 C-9.71125 10.495 -9.4225 10.99 -9.125 11.5 C-6.63105552 17.04209885 -5.7481849 23.01452077 -5 29 C-7.64 29 -10.28 29 -13 29 C-12.01 27.68 -11.02 26.36 -10 25 C-11.03447266 24.68869141 -11.03447266 24.68869141 -12.08984375 24.37109375 C-19.11002502 22.06955284 -24.605091 19.0937978 -30 14 C-30.33 13.34 -30.66 12.68 -31 12 C-30.19175781 11.61328125 -29.38351562 11.2265625 -28.55078125 10.828125 C-27.48214844 10.30734375 -26.41351563 9.7865625 -25.3125 9.25 C-24.25675781 8.73953125 -23.20101563 8.2290625 -22.11328125 7.703125 C-18.96481996 6.09853135 -18.96481996 6.09853135 -16.3515625 3.875 C-11.62228098 0.1041443 -5.91462544 -0.29573127 0 0 Z " fill="#8C768A" transform="translate(287,274)"/>
<path d="M0 0 C0.1875 2.375 0.1875 2.375 0 5 C-0.99 5.66 -1.98 6.32 -3 7 C-2.67 7.66 -2.34 8.32 -2 9 C-0.61633749 9.3990774 0.7829003 9.74487695 2.1875 10.0625 C7.24947867 11.64740067 9.35205769 14.21033129 11.95703125 18.734375 C13.42199912 21.9167022 13.87807325 23.56087978 13 27 C11.54661155 29.14249505 10.00902222 31.11459939 8.3125 33.0703125 C6.62506561 35.16228588 6.62506561 35.16228588 7 39 C6.01 39 5.02 39 4 39 C2.25335731 35.17402077 0.8317328 31.50239655 -0.25 27.4375 C-2.83707485 18.51277618 -7.19109393 10.21325699 -13 3 C-13 2.34 -13 1.68 -13 1 C-8.59085217 -0.10228696 -4.51617599 -0.07654536 0 0 Z " fill="#433C4B" transform="translate(316,178)"/>
<path d="M0 0 C4.07492795 6.11239193 4.07492795 6.11239193 3.84765625 8.8046875 C0.27306947 18.06237308 -12.75372951 26.18350055 -21 31 C-22.97851249 31.7279648 -24.97442152 32.41564029 -27 33 C-28.32 30.03 -29.64 27.06 -31 24 C-30.21238281 23.55011719 -29.42476563 23.10023438 -28.61328125 22.63671875 C-17.93443377 16.33051178 -8.68686099 8.86251443 0 0 Z " fill="#F6F6F6" transform="translate(312,262)"/>
<path d="M0 0 C7.85554971 -0.44187467 14.89354508 -0.11404125 22.5 1.8125 C23.15742188 1.97782227 23.81484375 2.14314453 24.4921875 2.31347656 C28.60624616 3.42805062 32.25252334 4.98168309 36 7 C35.34 9.97 34.68 12.94 34 16 C28.30991148 15.04791826 22.70685423 13.96616704 17.125 12.5 C10.81268006 10.86807477 4.45434599 9.88487001 -2 9 C-1.125 2.25 -1.125 2.25 0 0 Z " fill="#F7F7F7" transform="translate(188,241)"/>
<path d="M0 0 C8.33414734 -0.6958008 15.72249305 0.33680827 23.8125 2.25 C24.69510498 2.45455811 25.57770996 2.65911621 26.48706055 2.86987305 C32.1146861 4.27029356 36.90423453 6.23017626 42 9 C41.43174347 14.54050113 39.37113483 19.03715966 37 24 C35.18834603 23.57713764 33.3767515 23.15401922 31.56542969 22.72973633 C30.00903207 22.36525308 28.45238681 22.00182584 26.89550781 21.6394043 C22.48927353 20.60791595 18.1177066 19.49835582 13.75 18.3125 C7.55846042 16.73021766 1.36773636 16.29784573 -5 16 C-4.54548816 14.26982492 -4.08621143 12.54090123 -3.625 10.8125 C-3.36976563 9.84957031 -3.11453125 8.88664063 -2.8515625 7.89453125 C-2.05233704 5.17789793 -1.0968638 2.60862825 0 0 Z M2 4 C0.50178941 7.37097383 0 9.20442119 0 13 C1.0415625 13.17015625 2.083125 13.3403125 3.15625 13.515625 C11.5095441 14.91634776 19.72121446 16.54708166 27.90820312 18.72949219 C30.70787667 19.4690558 33.08729399 20 36 20 C36.66 17.03 37.32 14.06 38 11 C26.20513899 5.20252594 15.09771787 3.46980752 2 4 Z " fill="#1C1C1C" transform="translate(186,237)"/>
<path d="M0 0 C1.28648437 -0.02578125 2.57296875 -0.0515625 3.8984375 -0.078125 C7.89556586 0.27382341 10.24896935 1.11881841 13.625 3.25 C14.285 4.24 14.945 5.23 15.625 6.25 C14.861875 5.92 14.09875 5.59 13.3125 5.25 C6.90568247 3.51255796 0.3844179 3.06780072 -5.75 5.9375 C-10.78991034 8.86456449 -15.08998231 12.838116 -17.375 18.25 C-18.10931532 24.24523195 -17.82880258 29.12884445 -14.375 34.25 C-8.99483141 40.3199338 -5.18933952 41.46856605 2.625 42.25 C2.625 42.58 2.625 42.91 2.625 43.25 C-9.92428878 44.28302072 -9.92428878 44.28302072 -15 40.5 C-20.3129921 35.9062339 -22.91715731 31.13443375 -23.74609375 24.1015625 C-23.89555624 16.83944397 -23.49490536 11.66429992 -18.375 6.25 C-12.47131709 0.99203241 -7.88274276 0.0944041 0 0 Z " fill="#463F4E" transform="translate(255.375,196.75)"/>
<path d="M0 0 C1 2 1 2 0.328125 4.328125 C-0.20554687 5.77445313 -0.20554687 5.77445313 -0.75 7.25 C-5.45470692 20.95854258 -6.85488442 34.6377425 -8 49 C-11.94983713 45.58599349 -11.94983713 45.58599349 -12.171875 42.9921875 C-12.03265625 42.29351562 -11.8934375 41.59484375 -11.75 40.875 C-10.26328987 31.6980951 -10.26328987 31.6980951 -12.4375 22.875 C-15.41961427 19.52921326 -18.68079199 16.73381546 -22.171875 13.9296875 C-24 12 -24 12 -24 8 C-23.14277344 8.03480469 -22.28554688 8.06960937 -21.40234375 8.10546875 C-12.25271933 8.38017179 -12.25271933 8.38017179 -4 5 C-1.58855519 2.46900795 -1.58855519 2.46900795 0 0 Z " fill="#EB4639" transform="translate(336,130)"/>
<path d="M0 0 C3.95622293 0.63299567 5.36494412 1.59467802 8.125 4.5 C11.45995677 9.50786669 12.6230283 13.52366045 12.125 19.5 C10.125 16.5 10.125 16.5 9.265625 14.7109375 C7.60393882 11.28553179 6.7620068 9.78462006 3.1875 8.1875 C-0.03202444 8.22881351 -0.03202444 8.22881351 -2.4375 10.625 C-8.81007918 19.517924 -10.93083188 30.95723467 -12.875 41.5 C-14.84765625 40.1875 -14.84765625 40.1875 -16.875 38.5 C-18.69486908 26.02089775 -10.86056871 12.25119513 -4.3046875 2.05859375 C-2.875 0.5 -2.875 0.5 0 0 Z " fill="#443D4C" transform="translate(192.875,184.5)"/>
<path d="M0 0 C0.33 0 0.66 0 1 0 C1.66 3.63 2.32 7.26 3 11 C4.051875 10.071875 5.10375 9.14375 6.1875 8.1875 C13.26775877 2.18559727 13.26775877 2.18559727 18.5 1.625 C22.2486869 2.02664502 24.07442224 2.6595378 27 5 C28.69964032 7.8227242 29.27078936 10.10874844 29.5 13.375 C29.84400052 17.15900575 30.62845258 20.43397671 32 24 C30.09950779 25.90049221 26.90674128 25.21802011 24.375 25.25 C18.73808137 25.22699217 14.87772297 24.78727027 10 22 C13.61867559 20.7937748 16.92506251 20.89183082 20.6875 20.9375 C21.38939453 20.94201172 22.09128906 20.94652344 22.81445312 20.95117188 C24.54300538 20.96293073 26.27151365 20.98086546 28 21 C27.74357696 19.08135229 27.46926564 17.16509006 27.1875 15.25 C27.03667969 14.18265625 26.88585937 13.1153125 26.73046875 12.015625 C25.98679593 8.94548906 25.07234528 7.33919522 23 5 C17.50501963 5.22428491 14.55590595 6.49009381 10.51171875 10.234375 C8.18637624 12.95027891 7.14653535 15.6278372 6 19 C6.99 19.33 7.98 19.66 9 20 C8.01 20.33 7.02 20.66 6 21 C4.3515625 20.07421875 4.3515625 20.07421875 2.625 18.6875 C-0.144533 16.57065949 -2.66251449 15.11249517 -6 14 C-5.57996921 8.39958947 -3.31423011 4.411509 0 0 Z " fill="#887386" transform="translate(295,87)"/>
<path d="M0 0 C0 3.61029169 -0.96092582 6.55806676 -2 10 C-1.54625 9.34 -1.0925 8.68 -0.625 8 C-0.08875 7.34 0.4475 6.68 1 6 C1.66 6 2.32 6 3 6 C2.96519531 6.94101563 2.93039063 7.88203125 2.89453125 8.8515625 C2.86746094 10.09679687 2.84039062 11.34203125 2.8125 12.625 C2.77769531 13.85476562 2.74289063 15.08453125 2.70703125 16.3515625 C3.12108839 21.50795406 5.17690539 24.76535808 8 29 C2.43426871 29.28788265 -1.23537975 29.24860472 -6 26 C-9.05055526 22.62833366 -10.27403455 19.97411596 -10.5 15.5 C-10.23711614 10.2773739 -8.24587621 7.07058831 -4.3984375 3.5234375 C-2.96591741 2.30817164 -1.48647577 1.14864037 0 0 Z " fill="#F5F4F5" transform="translate(253,205)"/>
<path d="M0 0 C7.98828138 -0.51537299 14.56937005 0.64169887 21.08203125 5.578125 C26.05642756 10.2278765 28.71292576 14.53893597 29.27734375 21.34375 C29.49284373 29.54998928 28.60173047 34.38648546 23.75 41.125 C19.56133701 45.50405677 15.15400569 48.25405992 9 49 C9.19921875 47.1484375 9.19921875 47.1484375 10 45 C12.14453125 43.7265625 12.14453125 43.7265625 14.8125 42.625 C19.62021233 40.39971601 21.64237917 38.71524167 24 34 C26.04628787 27.8611364 26.10571965 20.49983235 23.375 14.5625 C20.6701917 9.94218689 17.1368433 6.7122811 12 5 C9.77425665 4.77548542 7.54418481 4.59217122 5.3125 4.4375 C3.54326172 4.31181641 3.54326172 4.31181641 1.73828125 4.18359375 C0.83464844 4.12300781 -0.06898438 4.06242188 -1 4 C-0.67 2.68 -0.34 1.36 0 0 Z " fill="#100F10" transform="translate(251,193)"/>
<path d="M0 0 C2.375 1 2.375 1 4 2 C4 4.64 4 7.28 4 10 C3.360625 9.67 2.72125 9.34 2.0625 9 C-2.01236841 7.66943072 -5.75190425 7.83340801 -10 8 C-9.2575 8.5775 -8.515 9.155 -7.75 9.75 C-5.32810963 11.73154666 -3.09238069 13.67513257 -1 16 C-1 16.66 -1 17.32 -1 18 C-6.28 17.34 -11.56 16.68 -17 16 C-17 9.76131024 -16.84101524 8.53042823 -13 4 C-8.9394733 0.81450205 -5.19947597 -0.69326346 0 0 Z " fill="#8C778A" transform="translate(291,104)"/>
<path d="M0 0 C0.66 0.33 1.32 0.66 2 1 C1.773125 1.515625 1.54625 2.03125 1.3125 2.5625 C0.83486278 6.28807032 2.38709761 8.64516304 4 12 C9.26170694 10.58832253 12.72171358 8.25149768 17 5 C17.66 5.33 18.32 5.66 19 6 C18.01 7.485 18.01 7.485 17 9 C17.80404463 12.1628485 17.80404463 12.1628485 19 15 C16.94175571 15.84378975 14.87820214 16.67463622 12.8125 17.5 C11.66394531 17.9640625 10.51539063 18.428125 9.33203125 18.90625 C6.28009923 19.90805652 4.16884928 20.23870804 1 20 C-1.41862058 14.06338584 -2.9007105 8.31121503 -4 2 C-2.125 0.9375 -2.125 0.9375 0 0 Z " fill="#0D0C0E" transform="translate(281,282)"/>
<path d="M0 0 C2.58331026 1.40461357 3.97405581 2.80979007 6 5 C5.01 5.495 5.01 5.495 4 6 C2.9790625 5.5359375 2.9790625 5.5359375 1.9375 5.0625 C-2.07573718 3.61090357 -5.77700348 3.83439229 -10 4 C-10 7.13323425 -7.95350919 8.68020784 -6 11 C-11.445 12.485 -11.445 12.485 -17 14 C-14.03 16.31 -11.06 18.62 -8 21 C-10.81814566 22.40907283 -12.17277204 21.50872691 -15.125 20.5625 C-16.49011719 20.13130859 -16.49011719 20.13130859 -17.8828125 19.69140625 C-18.58148438 19.46324219 -19.28015625 19.23507813 -20 19 C-20.91116273 9.66901871 -20.91116273 9.66901871 -18.76953125 5.74609375 C-13.57517163 -0.39735873 -7.82162082 -1.04733954 0 0 Z " fill="#8F7A8D" transform="translate(284,123)"/>
<path d="M0 0 C3.41458042 0.06829161 6.04087046 0.19675607 8.73046875 2.44921875 C12.35719689 6.57742041 15 10.34875123 15 16 C6.19928964 15.43221223 -0.8891027 13.33317297 -8 8 C-4.7 7.34 -1.4 6.68 2 6 C1.34 4.02 0.68 2.04 0 0 Z " fill="#030203" transform="translate(278,129)"/>
<path d="M0 0 C0.99 0.33 1.98 0.66 3 1 C3 1.33 3 1.66 3 2 C4.32 2 5.64 2 7 2 C8.60725635 5.21451269 8.05748185 8.43612536 8 12 C4.9489365 13.01702117 2.75800939 13.16582083 -0.4375 13.1875 C-1.85869141 13.20876953 -1.85869141 13.20876953 -3.30859375 13.23046875 C-6.04501644 12.99614518 -7.66428123 12.39701383 -10 11 C-9.43997584 7.46340908 -8.32225676 6.04440308 -5.5625 3.8125 C-4.94503906 3.30332031 -4.32757813 2.79414062 -3.69140625 2.26953125 C-2 1 -2 1 0 0 Z " fill="#040405" transform="translate(313,94)"/>
<path d="M0 0 C0.66 0 1.32 0 2 0 C1.34 2.64 0.68 5.28 0 8 C0.99 7.67 1.98 7.34 3 7 C2.67 12.28 2.34 17.56 2 23 C-4.93359375 23.09765625 -4.93359375 23.09765625 -7 23 C-8 22 -8 22 -8.0546875 20.06640625 C-7.51808951 12.58902985 -5.42829022 5.42829022 0 0 Z " fill="#F7F6F7" transform="translate(193,201)"/>
<path d="M0 0 C0.33 0 0.66 0 1 0 C1.07347656 1.66675781 1.07347656 1.66675781 1.1484375 3.3671875 C1.3773038 18.93230388 1.3773038 18.93230388 7 33 C8.96666217 34.24253551 10.92765347 35.21875945 13.0625 36.140625 C15 37 15 37 18 39 C13.28617117 39.34030315 8.70349209 39.53288118 4 39 C0.11497359 35.20130751 -0.90101711 31.30144564 -1.12939453 25.99145508 C-1.13052246 24.84572021 -1.13165039 23.69998535 -1.1328125 22.51953125 C-1.13410156 21.27365234 -1.13539063 20.02777344 -1.13671875 18.74414062 C-1.13285156 17.44669922 -1.12898437 16.14925781 -1.125 14.8125 C-1.12886719 13.50345703 -1.13273438 12.19441406 -1.13671875 10.84570312 C-1.13542969 9.60369141 -1.13414062 8.36167969 -1.1328125 7.08203125 C-1.13168457 5.93968018 -1.13055664 4.7973291 -1.12939453 3.62036133 C-1 1 -1 1 0 0 Z " fill="#B1B1B1" transform="translate(185,263)"/>
<path d="M0 0 C0.33 0.99 0.66 1.98 1 3 C1.74378906 3.00257813 2.48757812 3.00515625 3.25390625 3.0078125 C15.28278659 3.43386493 26.47619609 6.73705682 38 10 C38 9.01 38 8.02 38 7 C38.99 6.67 39.98 6.34 41 6 C40.67 8.31 40.34 10.62 40 13 C36.04774649 14.31741784 34.05185684 13.3862874 30.0625 12.25 C28.70194193 11.87326785 27.34126331 11.49697077 25.98046875 11.12109375 C24.65341245 10.74822546 23.32657575 10.37457438 22 10 C13.63439316 7.64046986 5.693236 6.4066191 -3 6 C-2.625 3.5625 -2.625 3.5625 -2 1 C-1.34 0.67 -0.68 0.34 0 0 Z " fill="#111111" transform="translate(184,247)"/>
<path d="M0 0 C5.30364037 0.41597179 8.34125931 1.05241136 12 5 C18.69433424 13.4278533 18.13835014 24.76163811 17 35 C15.97265625 38.609375 15.97265625 38.609375 15 41 C14.01 40.67 13.02 40.34 12 40 C12.23783203 38.80503906 12.23783203 38.80503906 12.48046875 37.5859375 C13.10963635 33.24326188 13.26082082 29.00739419 13.3125 24.625 C13.34150391 23.81289062 13.37050781 23.00078125 13.40039062 22.1640625 C13.47040547 15.44263752 11.87901066 9.97497768 7.125 5.0625 C4.44989881 3.72494941 1.95718683 3.33604396 -1 3 C-0.67 2.01 -0.34 1.02 0 0 Z " fill="#0C0B0C" transform="translate(191,182)"/>
<path d="M0 0 C3.77727089 1.81309003 7.37269822 3.9073259 11 6 C10.67 6.66 10.34 7.32 10 8 C9.01 8 8.02 8 7 8 C7 8.66 7 9.32 7 10 C9.64 10.33 12.28 10.66 15 11 C13.28643995 13.12795039 12.44804317 13.9362108 9.6953125 14.328125 C8.84710938 14.30234375 7.99890625 14.2765625 7.125 14.25 C6.28195313 14.23453125 5.43890625 14.2190625 4.5703125 14.203125 C1.98071759 13.99847616 -0.46619526 13.56306772 -3 13 C-2.68991116 11.39536551 -2.37683713 9.79130769 -2.0625 8.1875 C-1.88847656 7.29417969 -1.71445313 6.40085938 -1.53515625 5.48046875 C-1 3 -1 3 0 0 Z " fill="#F0EFF0" transform="translate(239,139)"/>
<path d="M0 0 C3.3562486 3.59598064 4.1323164 6.87016832 4.0625 11.6875 C4.05347656 12.49574219 4.04445313 13.30398437 4.03515625 14.13671875 C4.02355469 14.75160156 4.01195312 15.36648437 4 16 C0.46129023 17.17956992 -2.3366687 17.06164767 -6.0625 17 C-10.696094 16.73216886 -10.696094 16.73216886 -15 18 C-15.66 17.34 -16.32 16.68 -17 16 C-16.67 15.67 -16.34 15.34 -16 15 C-16.66 14.67 -17.32 14.34 -18 14 C-17.67819848 8.69027497 -14.7150889 5.5077351 -11 2 C-7.06929604 -0.56699034 -4.4875114 -1.81926138 0 0 Z M-14.4375 8 C-16.2366259 9.86459158 -16.2366259 9.86459158 -15.9375 12.1875 C-15.0805106 14.36058256 -15.0805106 14.36058256 -12 15 C-10.16859259 15.09377689 -8.33380013 15.12992957 -6.5 15.125 C-5.5409375 15.12757812 -4.581875 15.13015625 -3.59375 15.1328125 C-0.88428848 15.10992972 -0.88428848 15.10992972 2 14 C2.020625 12.72125 2.04125 11.4425 2.0625 10.125 C2.07410156 9.40570313 2.08570313 8.68640625 2.09765625 7.9453125 C2.12649242 5.91814596 2.12649242 5.91814596 1 4 C-0.98 4.33 -2.96 4.66 -5 5 C-4.34 4.01 -3.68 3.02 -3 2 C-7.83302784 2 -10.80946418 5.02315009 -14.4375 8 Z " fill="#4C4353" transform="translate(319,92)"/>
<path d="M0 0 C2 1 2 1 3.1875 3.625 C4.14912884 7.61945825 4.06352309 10.0295138 3 14 C1.49700442 16.24954931 -0.12266045 18.02638663 -2 20 C-4.47193291 17.03368051 -6.25618453 14.48763093 -8 11 C-5.36 7.37 -2.72 3.74 0 0 Z " fill="#F0F0F0" transform="translate(333,203)"/>
<path d="M0 0 C0.33 0 0.66 0 1 0 C1.09796875 0.86882812 1.1959375 1.73765625 1.296875 2.6328125 C2.43825994 11.53820195 2.43825994 11.53820195 7 19 C7.66 19.99 8.32 20.98 9 22 C4.69159287 20.92289822 1.36423277 19.96052484 -2 17 C-2 17.66 -2 18.32 -2 19 C-2.66 19 -3.32 19 -4 19 C-5.75242742 15.49514517 -5.56359138 11.82393721 -5 8 C-3.6631034 5.0704107 -2.05935007 2.47797205 0 0 Z " fill="#BCBCBC" transform="translate(214,218)"/>
<path d="M0 0 C2 2 2 2 2.125 5.625 C2.08375 6.73875 2.0425 7.8525 2 9 C-2.455 8.01 -2.455 8.01 -7 7 C-5.39125 8.2684375 -5.39125 8.2684375 -3.75 9.5625 C-0.08732757 12.69661605 1.98173683 15.62709646 4 20 C3.67 20.66 3.34 21.32 3 22 C1.50260417 20.73046875 0.00520833 19.4609375 -1.4921875 18.19140625 C-3.00594079 16.9121848 -3.00594079 16.9121848 -5 16 C-5.391875 15.2575 -5.78375 14.515 -6.1875 13.75 C-8.60207776 10.0865027 -11.34925841 8.41086709 -15 6 C-14.67 5.34 -14.34 4.68 -14 4 C-12.58376784 3.94552953 -11.16691809 3.90699492 -9.75 3.875 C-8.96109375 3.85179688 -8.1721875 3.82859375 -7.359375 3.8046875 C-4.79268059 4.0171622 -3.2083933 4.71345895 -1 6 C-0.67 4.02 -0.34 2.04 0 0 Z " fill="#443C4B" transform="translate(295,107)"/>
<path d="M0 0 C0 1.65 0 3.3 0 5 C-1.03060547 5.05607422 -1.03060547 5.05607422 -2.08203125 5.11328125 C-3.43361328 5.21189453 -3.43361328 5.21189453 -4.8125 5.3125 C-6.15248047 5.39951172 -6.15248047 5.39951172 -7.51953125 5.48828125 C-10.30604 6.06313581 -11.24135754 6.8206856 -13 9 C-11.88820837 12.33537489 -10.52588702 13.63707344 -8 16 C-10.97 16 -13.94 16 -17 16 C-17.35399338 12.28306946 -17.12439143 10.24878287 -15.4375 6.875 C-11.16616657 1.83701698 -6.82396901 -0.66575307 0 0 Z " fill="#E5E3E5" transform="translate(291,104)"/>
<path d="M0 0 C3.21463689 1.34960494 4.65483375 2.54305924 6.375 5.5625 C6.79265625 6.26761719 7.2103125 6.97273437 7.640625 7.69921875 C8.08921875 8.45847656 8.5378125 9.21773437 9 10 C10.02837039 11.6334469 11.07003324 13.2586029 12.125 14.875 C12.84042969 15.98488281 12.84042969 15.98488281 13.5703125 17.1171875 C15.03556607 19.26002544 15.03556607 19.26002544 18 21 C17.6875 23.375 17.6875 23.375 17 26 C16.01 26.66 15.02 27.32 14 28 C11.59750912 24.21856466 9.82719306 20.3904696 8.125 16.25 C5.77110204 10.61104066 3.13650782 5.2460175 0 0 Z " fill="#877285" transform="translate(305,182)"/>
<path d="M0 0 C-10.23 0 -20.46 0 -31 0 C-31 -0.33 -31 -0.66 -31 -1 C-29.02 -1.66 -27.04 -2.32 -25 -3 C-25 -3.33 -25 -3.66 -25 -4 C-7.17755444 -5.74204355 -7.17755444 -5.74204355 0 0 Z " fill="#5D5655" transform="translate(216,312)"/>
<path d="M0 0 C2 2.66666667 4 5.33333333 6 8 C6.67546875 7.6390625 7.3509375 7.278125 8.046875 6.90625 C9.38492187 6.21015625 9.38492187 6.21015625 10.75 5.5 C11.63171875 5.0359375 12.5134375 4.571875 13.421875 4.09375 C16 3 16 3 20 3 C20.33 4.32 20.66 5.64 21 7 C18.94175571 7.84378975 16.87820214 8.67463622 14.8125 9.5 C13.66394531 9.9640625 12.51539063 10.428125 11.33203125 10.90625 C8.28009923 11.90805652 6.16884928 12.23870804 3 12 C2.49166409 10.75336669 1.99368855 9.50250613 1.5 8.25 C1.2215625 7.55390625 0.943125 6.8578125 0.65625 6.140625 C0 4 0 4 0 0 Z " fill="#453E4D" transform="translate(279,290)"/>
<path d="M0 0 C0.66 0 1.32 0 2 0 C2.30050602 7.84654605 2.48355057 16.27467414 -2 23 C-2.73033661 21.78377829 -3.43351354 20.55122244 -4.125 19.3125 C-4.51945312 18.62800781 -4.91390625 17.94351562 -5.3203125 17.23828125 C-6.25561207 14.15824303 -5.39144451 12.85246124 -4 10 C-3.64679688 9.11699219 -3.29359375 8.23398438 -2.9296875 7.32421875 C-1.953125 4.8828125 -0.9765625 2.44140625 0 0 Z " fill="#F2F0F2" transform="translate(326,241)"/>
<path d="M0 0 C4.30764815 1.56641751 8.06171464 3.68336156 12 6 C11.67 6.66 11.34 7.32 11 8 C-10.81378535 8.61916858 -10.81378535 8.61916858 -19 5 C-15.25 3.875 -15.25 3.875 -13 5 C-10.62597499 5.07116382 -8.24999323 5.08409085 -5.875 5.0625 C-4.59367187 5.05347656 -3.31234375 5.04445313 -1.9921875 5.03515625 C-0.51105469 5.01775391 -0.51105469 5.01775391 1 5 C0.67 3.35 0.34 1.7 0 0 Z " fill="#433C4C" transform="translate(325,106)"/>
<path d="M0 0 C0.66 0 1.32 0 2 0 C2.98248524 4.0527516 3.08159574 7.83861737 3 12 C-1.75481646 11.42365861 -4.97048212 9.44931479 -9 7 C-9 6.34 -9 5.68 -9 5 C-8.43410156 4.72285156 -7.86820312 4.44570313 -7.28515625 4.16015625 C-6.55167969 3.79792969 -5.81820313 3.43570312 -5.0625 3.0625 C-3.96615234 2.52302734 -3.96615234 2.52302734 -2.84765625 1.97265625 C-1.03750973 1.13628173 -1.03750973 1.13628173 0 0 Z " fill="#F2F0F1" transform="translate(271,281)"/>
<path d="M0 0 C0.66 0.33 1.32 0.66 2 1 C1.45661859 5.09347331 0.24314794 7.46420955 -2.3125 10.6875 C-3.20388672 11.83798828 -3.20388672 11.83798828 -4.11328125 13.01171875 C-5.98836259 14.98773614 -7.50261185 15.96906935 -10 17 C-10.8046875 14.82421875 -10.8046875 14.82421875 -11 12 C-8.9453125 9.39453125 -8.9453125 9.39453125 -6.125 6.8125 C-2.60317102 3.75529915 -2.60317102 3.75529915 0 0 Z " fill="#877185" transform="translate(323,269)"/>
<path d="M0 0 C1.08539063 0.55429687 2.17078125 1.10859375 3.2890625 1.6796875 C4.73426596 2.41167367 6.17958458 3.14343248 7.625 3.875 C8.33785156 4.23980469 9.05070312 4.60460937 9.78515625 4.98046875 C13.78751837 7.00000927 17.68917073 8.7081111 22 10 C22 10.33 22 10.66 22 11 C14.48141298 11.44444849 9.11248749 11.68190531 3 7 C0.5185129 4.35841695 0 3.66826173 0 0 Z " fill="#050506" transform="translate(252,289)"/>
<path d="M0 0 C0.66 0 1.32 0 2 0 C2.33872513 1.41538717 2.67074624 2.83237963 3 4.25 C3.185625 5.03890625 3.37125 5.8278125 3.5625 6.640625 C4 9 4 9 4 13 C2.35 13 0.7 13 -1 13 C-1.33 14.32 -1.66 15.64 -2 17 C-3.47721433 11.38658553 -2.51076686 6.49463836 -1 1 C-0.67 0.67 -0.34 0.34 0 0 Z " fill="#1E1E1E" transform="translate(400,325)"/>
<path d="M0 0 C0.99386719 0.00902344 1.98773438 0.01804687 3.01171875 0.02734375 C4.15060547 0.04474609 4.15060547 0.04474609 5.3125 0.0625 C5.6425 0.7225 5.9725 1.3825 6.3125 2.0625 C5.40886719 2.11148438 4.50523437 2.16046875 3.57421875 2.2109375 C2.39472656 2.28570312 1.21523438 2.36046875 0 2.4375 C-1.75763672 2.54191406 -1.75763672 2.54191406 -3.55078125 2.6484375 C-6.84449887 2.84863747 -6.84449887 2.84863747 -9.6875 5.0625 C-8.3675 6.3825 -7.0475 7.7025 -5.6875 9.0625 C-8.3275 9.3925 -10.9675 9.7225 -13.6875 10.0625 C-13.3575 12.7025 -13.0275 15.3425 -12.6875 18.0625 C-13.3475 18.0625 -14.0075 18.0625 -14.6875 18.0625 C-15.59812395 9.68138702 -15.59812395 9.68138702 -13.45703125 5.875 C-9.34595061 1.00260813 -6.41124483 -0.07542641 0 0 Z " fill="#E2E0E2" transform="translate(278.6875,122.9375)"/>
<path d="M0 0 C3 4 3 4 3 7 C1.5390625 8.38671875 1.5390625 8.38671875 -0.375 9.6875 C-1.31472656 10.34298828 -1.31472656 10.34298828 -2.2734375 11.01171875 C-4 12 -4 12 -6 12 C-6.66 10.02 -7.32 8.04 -8 6 C-5.36 4.02 -2.72 2.04 0 0 Z " fill="#E8E8E8" transform="translate(308,283)"/>
<path d="M0 0 C2 2 2 2 3.625 5.3125 C5.76248503 9.22034477 8.55173824 10.93909662 12.390625 13.0546875 C12.92171875 13.36664063 13.4528125 13.67859375 14 14 C14 14.33 14 14.66 14 15 C5.8372093 15.62790698 5.8372093 15.62790698 2.5 13.125 C0.25228035 9.9407305 -0.11758024 8.2306169 -0.0625 4.375 C-0.05347656 3.55773437 -0.04445312 2.74046875 -0.03515625 1.8984375 C-0.02355469 1.27195313 -0.01195312 0.64546875 0 0 Z " fill="#BCBCBC" transform="translate(166,220)"/>
<path d="M0 0 C1.5625 1.8125 1.5625 1.8125 3 4 C2.67 4.99 2.34 5.98 2 7 C-12.78132118 7.55353075 -12.78132118 7.55353075 -19 4 C-15.38132441 2.7937748 -12.07493749 2.89183082 -8.3125 2.9375 C-7.61060547 2.94201172 -6.90871094 2.94652344 -6.18554688 2.95117188 C-4.45699462 2.96293073 -2.72848635 2.98086546 -1 3 C-0.67 2.01 -0.34 1.02 0 0 Z " fill="#887286" transform="translate(324,105)"/>
<path d="M0 0 C0 1.32 0 2.64 0 4 C-5.22727273 9 -5.22727273 9 -8 9 C-9.4606285 6.35261084 -10 5.10551666 -10 2 C-8.71211992 1.46987262 -7.41953322 0.9511671 -6.125 0.4375 C-5.40570313 0.14746094 -4.68640625 -0.14257812 -3.9453125 -0.44140625 C-2 -1 -2 -1 0 0 Z " fill="#F2F2F2" transform="translate(301,266)"/>
<path d="M0 0 C1 3 1 3 0.00390625 5.48046875 C-0.47175781 6.37378906 -0.94742187 7.26710938 -1.4375 8.1875 C-1.91058594 9.08855469 -2.38367188 9.98960938 -2.87109375 10.91796875 C-3.24363281 11.60503906 -3.61617188 12.29210937 -4 13 C-4.33 12.34 -4.66 11.68 -5 11 C-6.97888961 10.27306096 -8.97954558 9.60183749 -11 9 C-11 8.34 -11 7.68 -11 7 C-10.18595703 6.61908203 -10.18595703 6.61908203 -9.35546875 6.23046875 C-8.64003906 5.88628906 -7.92460937 5.54210937 -7.1875 5.1875 C-6.47980469 4.85105469 -5.77210938 4.51460938 -5.04296875 4.16796875 C-2.98870965 2.99354529 -1.58383722 1.74371984 0 0 Z " fill="#DD4338" transform="translate(342,117)"/>
<path d="M0 0 C1.22589844 0.01353516 1.22589844 0.01353516 2.4765625 0.02734375 C3.41628906 0.04474609 3.41628906 0.04474609 4.375 0.0625 C3.715 0.7225 3.055 1.3825 2.375 2.0625 C1.055 2.0625 -0.265 2.0625 -1.625 2.0625 C-1.625 2.7225 -1.625 3.3825 -1.625 4.0625 C-0.965 4.0625 -0.305 4.0625 0.375 4.0625 C0.705 5.7125 1.035 7.3625 1.375 9.0625 C-1.83951269 10.66975635 -5.06112536 10.11998185 -8.625 10.0625 C-8.625 9.7325 -8.625 9.4025 -8.625 9.0625 C-6.315 8.4025 -4.005 7.7425 -1.625 7.0625 C-3.275 5.0825 -4.925 3.1025 -6.625 1.0625 C-4.21954362 -0.14022819 -2.67503047 -0.03821472 0 0 Z " fill="#4E4555" transform="translate(278.625,125.9375)"/>
<path d="M0 0 C-1.19574329 4.38439205 -2.27220641 7.27971819 -6 10 C-9.75 10.75 -9.75 10.75 -13 11 C-11.83593677 9.83593677 -10.67129061 8.67245135 -9.50390625 7.51171875 C-8.4596661 6.46205398 -7.42652024 5.40128152 -6.40234375 4.33203125 C-2.21437055 0 -2.21437055 0 0 0 Z " fill="#F7EA30" transform="translate(322,295)"/>
<path d="M0 0 C1.40629862 2.81259725 0.52778783 4.15159789 -0.375 7.125 C-1.39932511 10.64756601 -2.21184487 13.9728937 -2.5625 17.625 C-2.7790625 19.295625 -2.7790625 19.295625 -3 21 C-3.66 21.33 -4.32 21.66 -5 22 C-5.40840238 14.89077331 -4.77525315 8.6198699 -2 2 C-1.34 1.34 -0.68 0.68 0 0 Z " fill="#B1B1B1" transform="translate(210,279)"/>
<path d="M0 0 C0.33 0.66 0.66 1.32 1 2 C1.66 2 2.32 2 3 2 C3 5.3 3 8.6 3 12 C-0.96 10.02 -4.92 8.04 -9 6 C-8.34 5.67 -7.68 5.34 -7 5 C-4.64018187 5.93578995 -2.30368736 6.93347808 0 8 C0 5.36 0 2.72 0 0 Z " fill="#141314" transform="translate(261,132)"/>
<path d="M0 0 C2.97 0 5.94 0 9 0 C8.67 1.32 8.34 2.64 8 4 C5.36 4 2.72 4 0 4 C0 2.68 0 1.36 0 0 Z " fill="#2D2D2D" transform="translate(354,326)"/>
<path d="M0 0 C0.66 0.33 1.32 0.66 2 1 C1.67 1.33 1.34 1.66 1 2 C5.95 2.33 10.9 2.66 16 3 C16 3.33 16 3.66 16 4 C8.08 4 0.16 4 -8 4 C-5.31143836 2.20762558 -3.0466145 1.01553817 0 0 Z " fill="#9B8E8D" transform="translate(355,308)"/>
<path d="M0 0 C2.875 -0.1875 2.875 -0.1875 6 0 C6.66 0.99 7.32 1.98 8 3 C5.36 3.33 2.72 3.66 0 4 C0.33 6.64 0.66 9.28 1 12 C0.34 12 -0.32 12 -1 12 C-1.02698189 10.37509046 -1.04638757 8.75005367 -1.0625 7.125 C-1.07410156 6.22007812 -1.08570313 5.31515625 -1.09765625 4.3828125 C-1 2 -1 2 0 0 Z " fill="#E8E6E8" transform="translate(265,129)"/>
<path d="M0 0 C0.33 0 0.66 0 1 0 C1.125 6.625 1.125 6.625 0 10 C-2.31 9.67 -4.62 9.34 -7 9 C-6.21625 8.2575 -5.4325 7.515 -4.625 6.75 C-2.43495469 4.45566682 -1.17268614 2.87841142 0 0 Z " fill="#9D9D9D" transform="translate(179,287)"/>
<path d="M0 0 C2.32472205 2.85306797 3.7508258 5.54074837 5 9 C2.69 8.34 0.38 7.68 -2 7 C-1.125 1.125 -1.125 1.125 0 0 Z " fill="#E8E7E8" transform="translate(291,94)"/>
<path d="M0 0 C0.33 0 0.66 0 1 0 C0.67 6.27 0.34 12.54 0 19 C-0.99 18.01 -1.98 17.02 -3 16 C-2.71901511 10.47396392 -1.4282821 5.33225318 0 0 Z " fill="#232323" transform="translate(184,267)"/>
<path d="M0 0 C2.04119788 1.61594832 4.04072937 3.2856382 6 5 C6 5.66 6 6.32 6 7 C2.37 6.67 -1.26 6.34 -5 6 C-2 4 -2 4 0 4 C0 2.68 0 1.36 0 0 Z " fill="#0E0D10" transform="translate(306,150)"/>
<path d="M0 0 C0.66 1.32 1.32 2.64 2 4 C0.71086513 4.67154933 -0.58140204 5.33708859 -1.875 6 C-2.59429687 6.37125 -3.31359375 6.7425 -4.0546875 7.125 C-6 8 -6 8 -8 8 C-8 7.34 -8 6.68 -8 6 C-6.25 4.4921875 -6.25 4.4921875 -4 2.875 C-3.2575 2.33617187 -2.515 1.79734375 -1.75 1.2421875 C-1.1725 0.83226562 -0.595 0.42234375 0 0 Z " fill="#A9A9A9" transform="translate(308,283)"/>
<path d="M0 0 C4.87685861 1.35468295 6.48592381 3.71675909 9 8 C6 8 6 8 3.375 5.6875 C1 3 1 3 0 0 Z " fill="#060607" transform="translate(316,191)"/>
<path d="M0 0 C6.875 2.75 6.875 2.75 8 5 C5.03 5 2.06 5 -1 5 C-0.67 3.35 -0.34 1.7 0 0 Z " fill="#F8F7F8" transform="translate(275,115)"/>
<path d="M0 0 C0.66 0.66 1.32 1.32 2 2 C-0.31 2.66 -2.62 3.32 -5 4 C-4.67 5.98 -4.34 7.96 -4 10 C-4.66 10 -5.32 10 -6 10 C-7.4606285 7.35261084 -8 6.10551666 -8 3 C-5.36 2.01 -2.72 1.02 0 0 Z " fill="#A6A6A6" transform="translate(299,265)"/>
<path d="M0 0 C0.99 0.33 1.98 0.66 3 1 C3.6875 3.0625 3.6875 3.0625 4 5 C1 6 1 6 -1.1875 5.0625 C-1.785625 4.711875 -2.38375 4.36125 -3 4 C-3 3.34 -3 2.68 -3 2 C-2.01 1.34 -1.02 0.68 0 0 Z " fill="#403A48" transform="translate(296,292)"/>
<path d="M0 0 C0.66 0.33 1.32 0.66 2 1 C1.2575 2.1446875 1.2575 2.1446875 0.5 3.3125 C-1.24368308 5.92363751 -1.24368308 5.92363751 -1 9 C-2.32 9 -3.64 9 -5 9 C-3.90931332 5.22454612 -3.0916909 2.52956528 0 0 Z " fill="#DAD7DA" transform="translate(279,107)"/>
<path d="M0 0 C0.99 0 1.98 0 3 0 C3.99 2.31 4.98 4.62 6 7 C1.32307692 5.52307692 1.32307692 5.52307692 -0.3125 2.875 C-0.539375 2.25625 -0.76625 1.6375 -1 1 C-0.67 0.67 -0.34 0.34 0 0 Z " fill="#3E3746" transform="translate(318,121)"/>
<path d="M0 0 C0 0.66 0 1.32 0 2 C0.99 2.33 1.98 2.66 3 3 C-5.57142857 2.14285714 -5.57142857 2.14285714 -9 0 C-5.52176885 -1.15941038 -3.54104422 -0.70820884 0 0 Z " fill="#0E0D10" transform="translate(297,152)"/>
<path d="M0 0 C0.99 0.33 1.98 0.66 3 1 C2.67 1.66 2.34 2.32 2 3 C-0.06640625 3.6328125 -0.06640625 3.6328125 -2.5625 4.125 C-3.38878906 4.29257812 -4.21507812 4.46015625 -5.06640625 4.6328125 C-5.70449219 4.75398438 -6.34257812 4.87515625 -7 5 C-2.25 1.125 -2.25 1.125 0 0 Z " fill="#7E6A7C" transform="translate(294,296)"/>
<path d="M0 0 C1.27351308 2.54702616 0.80191925 3.4282945 0.0625 6.125 C-0.13214844 6.84945313 -0.32679688 7.57390625 -0.52734375 8.3203125 C-0.68332031 8.87460937 -0.83929688 9.42890625 -1 10 C-1.66 9.67 -2.32 9.34 -3 9 C-2.25 2.25 -2.25 2.25 0 0 Z " fill="#9A9A9A" transform="translate(210,279)"/>
<path d="M0 0 C0 0.33 0 0.66 0 1 C-0.969375 1.12375 -1.93875 1.2475 -2.9375 1.375 C-4.4534375 1.684375 -4.4534375 1.684375 -6 2 C-6.33 2.66 -6.66 3.32 -7 4 C-8.65 3.67 -10.3 3.34 -12 3 C-11 1 -11 1 -9.375 0.375 C-6.2339425 -0.12095645 -3.17398169 -0.06103811 0 0 Z " fill="#90453F" transform="translate(140,157)"/>
</svg>
